<?xml version="1.0" encoding="UTF-8" standalone="no"?>
<svg
   viewBox="0 0 1024 1024"
   version="1.1"
   id="svg4"
   sodipodi:docname="ic_launcher_monochrome.svg"
   inkscape:version="1.4.2 (f4327f4, 2025-05-13)"
   xmlns:inkscape="http://www.inkscape.org/namespaces/inkscape"
   xmlns:sodipodi="http://sodipodi.sourceforge.net/DTD/sodipodi-0.dtd"
   xmlns="http://www.w3.org/2000/svg"
   xmlns:svg="http://www.w3.org/2000/svg">
  <defs
     id="defs4" />
  <sodipodi:namedview
     id="namedview4"
     pagecolor="#ffffff"
     bordercolor="#000000"
     borderopacity="0.25"
     inkscape:showpageshadow="2"
     inkscape:pageopacity="0.0"
     inkscape:pagecheckerboard="0"
     inkscape:deskcolor="#d1d1d1"
     inkscape:zoom="1.6699219"
     inkscape:cx="595.53683"
     inkscape:cy="579.96724"
     inkscape:window-width="1135"
     inkscape:window-height="1041"
     inkscape:window-x="602"
     inkscape:window-y="61"
     inkscape:window-maximized="0"
     inkscape:current-layer="layer1"
     showgrid="true">
    <inkscape:grid
       id="grid1"
       units="px"
       originx="0"
       originy="0"
       spacingx="1"
       spacingy="1"
       empcolor="#0099e5"
       empopacity="0.30196078"
       color="#0099e5"
       opacity="0.14901961"
       empspacing="5"
       enabled="true"
       visible="true" />
  </sodipodi:namedview>
  <g
     inkscape:groupmode="layer"
     id="layer1"
     inkscape:label="Layer 1">
    <path
       id="path_M"
       style="stroke-width:1.99202"
       d="m 620.34519,359.9142 c -40.0014,0 -85.4084,0 -99.37426,-0.0384 -16.53564,-0.13501 -33.31522,-1.18574 -45.14516,15.24356 -14.00693,19.65756 -27.89565,39.58339 -41.86907,59.20815 -10.34954,14.53526 -19.9069,29.96797 -30.57645,43.95193 -23.56404,-32.08829 -46.59058,-65.45861 -69.09026,-98.42807 -12.0648,-17.67891 -28.03484,-19.94309 -44.9699,-19.98441 -2.44867,-0.005 -6.57096,0.0171 -8.94378,0.0333 -13.82154,0.18834 -27.955,0.0147 -41.65011,0.009 5.24202,8.94593 10.60739,16.16455 14.78754,26.28759 2.24825,8.3475 3.6683,18.41892 3.74444,33.33842 -0.0885,80.3983 0.008,164.32409 -0.0207,244.64941 15.16997,-0.0234 42.5559,-0.008 57.69156,-0.008 0,-79.2745 -0.0348,-71.12186 0,-224.57905 15.67623,24.15984 16.91715,23.42038 31.05894,43.76067 19.16473,27.02618 37.58798,55.08645 57.37638,81.24161 13.19787,-16.52648 24.77729,-35.33554 37.40207,-52.68599 20.51318,-30.0631 37.41158,-52.34095 59.03396,-85.56075 2.16223,-3.77497 3.24335,-6.03995 6.48671,-8.30494 55.67762,0 110.27544,-0.61964 167.00437,-0.24624 15.63665,0.18762 22.40446,5.21591 34.76332,19.28777 12.33201,13.95935 18.83402,36.13595 19.07583,58.05058 0.8866,27.69352 0.0536,59.02766 -14.15906,80.60458 -14.48137,21.83956 -27.50222,26.75178 -47.75997,27.27715 -37.83283,0.37158 -65.56994,0 -103.4091,0 V 455.79862 c -16.3352,0.0376 -42.96413,-0.0378 -59.29931,0 0.21507,68.22055 0.10743,140.15815 0,208.37867 h 160.00564 c 18.20767,-0.041 55.00672,-5.38978 78.62288,-25.09029 25.25505,-20.33861 40.54167,-59.6272 43.20149,-99.51634 2.06872,-36.84961 1.6127,-75.7244 -10.66552,-109.38437 -9.86023,-30.2452 -30.199,-51.56011 -52.49866,-61.57931 -35.41613,-10.20276 -61.90354,-8.69278 -86.22872,-8.69278 z"
       inkscape:label="path_MD"
       sodipodi:nodetypes="cccscsscccccccccccccccccccccccccccc" />
  </g>
</svg>
