<?xml version="1.0" encoding="UTF-8"?><svg xmlns="http://www.w3.org/2000/svg" viewBox="0 0 1024 1024"> <g id="#010101ff"> <path fill="#010101" opacity="1.00" d=" M 437.97 397.97 C 443.05 388.97 456.21 386.56 464.42 392.58 C 469.08 396.44 471.64 402.10 475.01 407.00 C 498.21 443.85 522.01 480.32 545.15 517.20 C 534.75 517.43 524.34 517.31 513.94 517.32 C 510.73 517.41 507.05 516.78 505.47 513.61 C 496.88 499.14 488.45 484.56 480.02 469.99 C 471.01 454.93 462.80 439.38 453.37 424.58 C 444.28 439.80 435.66 455.30 426.59 470.53 C 418.65 484.88 409.97 498.82 402.07 513.19 C 400.25 516.89 395.68 517.29 392.04 517.33 C 382.25 517.25 372.46 517.41 362.67 517.21 C 371.94 501.18 382.45 485.91 392.15 470.15 C 407.48 446.12 422.83 422.11 437.97 397.97 Z" /> <path fill="#010101" opacity="1.00" d=" M 171.41 389.82 C 179.60 389.41 187.80 389.68 196.00 389.60 C 207.55 388.97 219.26 393.27 227.01 402.00 C 240.73 415.87 254.02 430.18 268.00 443.81 C 274.33 437.87 280.07 431.34 286.14 425.14 C 294.50 416.83 302.67 408.34 310.98 399.99 C 318.05 392.96 328.10 389.49 337.98 389.60 C 346.69 389.68 355.41 389.40 364.11 389.80 C 361.22 393.61 357.13 396.49 354.85 400.75 C 352.79 405.53 352.69 410.88 352.59 416.01 C 352.59 449.74 352.52 483.46 352.56 517.19 C 343.57 517.42 334.59 517.27 325.60 517.27 C 325.51 493.52 325.31 469.76 325.77 446.01 C 326.43 435.98 326.12 425.92 326.74 415.90 C 315.43 429.47 302.35 441.41 290.18 454.18 C 282.69 461.55 275.82 469.54 267.99 476.56 C 256.25 465.45 245.32 453.53 233.95 442.05 C 225.56 433.41 216.85 425.08 209.13 415.83 C 211.16 449.59 210.43 483.43 210.58 517.24 C 201.58 517.41 192.59 517.28 183.59 517.29 C 183.48 483.17 183.59 449.06 183.53 414.94 C 183.44 410.17 183.28 405.18 181.25 400.77 C 178.77 396.47 174.52 393.62 171.41 389.82 Z" /> <path fill="#010101" opacity="1.00" d=" M 689.59 391.61 C 691.70 389.18 695.10 389.66 697.98 389.57 C 749.62 389.75 801.28 389.34 852.92 389.77 C 849.08 395.85 844.10 401.08 839.90 406.89 C 837.65 409.77 835.34 413.70 831.09 413.22 C 791.90 413.29 752.71 413.20 713.52 413.25 C 713.61 421.82 713.65 430.39 713.54 438.96 C 730.35 439.57 747.18 439.07 764.00 439.23 C 786.78 439.25 809.56 439.17 832.33 439.26 C 828.02 445.58 823.17 451.51 818.76 457.76 C 817.04 459.93 815.28 463.06 812.03 462.56 C 779.23 462.57 746.42 462.49 713.62 462.61 C 713.70 470.76 713.28 478.93 713.80 487.06 C 714.14 489.40 714.51 492.91 717.46 493.28 C 722.61 493.86 727.82 493.39 733.00 493.51 C 770.88 493.62 808.76 493.32 846.63 493.66 C 842.59 500.13 837.65 505.98 833.27 512.22 C 831.40 514.50 829.55 517.84 826.09 517.31 C 785.05 517.32 744.01 517.30 702.96 517.34 C 696.38 517.21 689.00 515.76 684.67 510.34 C 681.82 506.94 681.22 502.34 681.27 498.06 C 681.29 469.36 681.31 440.66 681.30 411.97 C 681.64 408.80 677.55 408.49 675.55 407.09 C 680.22 401.92 684.69 396.55 689.59 391.61 Z" /> </g> <g id="#e00d1eff"> <path fill="#e00d1e" opacity="1.00" d=" M 497.73 389.63 C 558.20 389.57 618.67 389.53 679.13 389.65 C 674.50 396.12 668.89 401.77 663.87 407.92 C 662.31 409.66 660.69 411.95 658.04 411.69 C 640.45 411.93 622.86 411.43 605.28 411.86 C 605.15 446.97 605.48 482.09 605.12 517.20 C 594.19 517.45 583.26 517.43 572.33 517.21 C 572.30 482.09 572.47 446.98 572.28 411.87 C 558.52 411.58 544.76 411.76 531.00 411.73 C 526.51 411.62 521.95 412.21 517.51 411.38 C 515.46 410.21 513.91 408.38 512.30 406.70 C 507.34 401.10 501.65 396.07 497.73 389.63 Z" /> </g> <g id="#656565ff"> <path fill="#656565" opacity="1.00" d=" M 371.91 563.88 C 377.91 555.93 388.36 552.75 397.98 552.71 C 413.99 552.73 429.99 552.76 446.00 552.71 C 453.56 552.66 461.47 553.83 467.87 558.13 C 473.43 561.80 477.26 567.84 478.32 574.41 C 479.65 583.17 478.56 592.82 473.05 600.04 C 469.75 604.40 464.55 606.54 459.80 608.91 C 466.62 617.49 474.52 625.15 481.30 633.76 C 474.54 634.24 467.73 634.62 460.96 634.15 C 458.28 634.13 456.59 631.83 454.97 630.04 C 450.74 624.93 446.56 619.77 442.33 614.66 C 440.87 613.07 439.39 610.98 437.01 610.91 C 432.10 610.43 427.16 610.80 422.23 610.76 C 422.15 605.61 422.15 600.46 422.23 595.30 C 429.15 595.25 436.08 595.26 443.00 595.34 C 447.32 595.30 452.01 595.31 455.72 592.77 C 463.28 587.98 463.43 574.95 455.63 570.34 C 452.50 568.31 448.63 568.32 445.04 568.31 C 430.01 568.46 414.97 568.38 399.94 568.34 C 395.79 568.27 391.24 569.12 388.40 572.42 C 385.50 575.49 385.26 579.95 385.22 583.95 C 385.23 600.67 385.28 617.40 385.13 634.13 C 379.19 634.35 373.24 634.35 367.30 634.06 C 367.15 617.71 367.43 601.35 367.28 585.00 C 367.14 577.78 367.40 569.92 371.91 563.88 Z" /> <path fill="#656565" opacity="1.00" d=" M 517.38 553.51 C 527.86 552.05 538.47 553.04 549.00 552.78 C 561.02 553.11 573.59 551.29 585.02 555.99 C 592.94 558.97 599.91 564.80 603.41 572.60 C 607.79 581.68 608.08 592.12 607.07 601.98 C 605.95 611.73 601.39 621.45 593.20 627.19 C 585.36 632.78 575.50 634.57 566.05 634.57 C 553.35 634.56 540.65 634.55 527.96 634.61 C 517.44 634.59 506.29 631.93 498.45 624.54 C 491.63 618.28 487.88 609.15 487.44 599.98 C 486.96 589.88 487.03 579.14 492.10 570.06 C 497.09 560.72 507.10 554.97 517.38 553.51 M 521.37 569.51 C 513.09 570.80 506.49 577.96 505.61 586.25 C 504.90 594.37 504.60 603.49 509.56 610.45 C 514.23 616.70 522.53 618.55 529.94 618.66 C 540.97 618.73 552.01 618.72 563.05 618.72 C 570.21 618.73 578.00 617.50 583.43 612.43 C 588.10 607.96 589.36 601.20 589.49 595.01 C 589.67 588.56 588.98 581.50 584.59 576.41 C 580.14 570.93 572.82 569.03 566.04 568.79 C 557.03 568.53 548.01 568.79 539.00 568.72 C 533.12 568.78 527.18 568.41 521.37 569.51 Z" /> <path fill="#656565" opacity="1.00" d=" M 250.43 553.84 C 266.61 553.17 282.81 553.78 299.00 553.56 C 309.97 553.77 321.32 552.50 331.88 556.19 C 340.18 558.86 347.75 564.54 351.42 572.60 C 355.99 581.57 356.16 591.93 355.39 601.75 C 354.40 612.38 348.71 622.85 339.31 628.27 C 330.52 633.52 320.02 634.49 309.99 634.26 C 290.14 633.98 270.26 634.73 250.41 633.93 C 250.45 615.75 250.48 597.56 250.40 579.38 C 256.48 579.37 262.56 579.39 268.64 579.38 C 268.89 592.46 268.25 605.54 268.94 618.61 C 282.97 618.50 297.01 618.68 311.05 618.56 C 318.59 618.42 327.00 617.21 332.39 611.39 C 337.68 605.64 337.99 597.29 337.66 589.91 C 337.57 584.07 335.15 578.16 330.56 574.44 C 325.96 570.69 319.88 569.35 314.06 569.30 C 292.84 569.20 271.61 569.61 250.39 569.08 C 250.40 564.00 250.43 558.91 250.43 553.84 Z" /> <path fill="#656565" opacity="1.00" d=" M 620.34 553.84 C 626.41 553.42 632.52 553.42 638.60 553.84 C 638.56 580.55 638.59 607.25 638.62 633.95 C 632.53 634.39 626.43 634.37 620.35 634.01 C 620.43 607.28 620.32 580.56 620.34 553.84 Z" /> <path fill="#656565" opacity="1.00" d=" M 654.81 553.69 C 677.20 553.35 699.59 553.73 721.99 553.53 C 732.84 553.31 743.98 556.53 752.23 563.76 C 759.38 570.07 762.72 579.67 763.38 588.98 C 764.05 599.03 763.21 609.83 757.45 618.43 C 751.77 627.15 741.59 631.80 731.61 633.44 C 721.47 634.89 711.20 634.07 701.00 634.26 C 685.60 634.17 670.19 634.43 654.80 634.17 C 654.71 607.35 654.63 580.52 654.81 553.69 M 672.95 569.32 C 672.59 585.65 672.76 602.00 672.83 618.34 C 681.89 618.68 690.95 618.40 700.00 618.47 C 709.49 618.22 719.11 619.31 728.48 617.47 C 735.79 616.09 742.63 610.89 744.41 603.44 C 746.22 595.41 746.30 586.28 742.01 579.00 C 737.69 571.92 728.93 569.28 721.05 569.31 C 705.02 569.34 688.99 569.32 672.95 569.32 Z" /> </g> </svg>