<?xml version="1.0" encoding="UTF-8" standalone="no"?>
<svg
   viewBox="0 0 1024 1024"
   version="1.1"
   id="svg4"
   sodipodi:docname="MD_monochrome.svg"
   inkscape:version="1.4.2 (f4327f4, 2025-05-13)"
   xmlns:inkscape="http://www.inkscape.org/namespaces/inkscape"
   xmlns:sodipodi="http://sodipodi.sourceforge.net/DTD/sodipodi-0.dtd"
   xmlns="http://www.w3.org/2000/svg"
   xmlns:svg="http://www.w3.org/2000/svg">
  <defs
     id="defs4" />
  <sodipodi:namedview
     id="namedview4"
     pagecolor="#ffffff"
     bordercolor="#000000"
     borderopacity="0.25"
     inkscape:showpageshadow="2"
     inkscape:pageopacity="0.0"
     inkscape:pagecheckerboard="0"
     inkscape:deskcolor="#d1d1d1"
     inkscape:zoom="0.59040654"
     inkscape:cx="449.69014"
     inkscape:cy="666.48991"
     inkscape:window-width="1233"
     inkscape:window-height="1041"
     inkscape:window-x="-7"
     inkscape:window-y="0"
     inkscape:window-maximized="0"
     inkscape:current-layer="layer2"
     showgrid="true">
    <inkscape:grid
       id="grid1"
       units="px"
       originx="0"
       originy="0"
       spacingx="1"
       spacingy="1"
       empcolor="#0099e5"
       empopacity="0.30196078"
       color="#0099e5"
       opacity="0.14901961"
       empspacing="5"
       enabled="true"
       visible="true" />
  </sodipodi:namedview>
  <g
     inkscape:groupmode="layer"
     id="layer1"
     inkscape:label="Layer 1" />
  <g
     inkscape:groupmode="layer"
     id="layer2"
     inkscape:label="Layer 2"
     style="display:inline">
    <path
       id="path_M"
       style="stroke-width:1.94413"
       d="m 523.82159,434.14926 c -0.37102,-23.01096 4.48441,-46.19056 -2.1193,-46.2507 -19.20797,-0.21384 -38.746,6.5324 -52.49099,20.19962 -16.15569,16.23346 -32.03909,32.73902 -48.29201,48.89471 -11.80085,12.0536 -22.96108,24.74841 -35.26741,36.29654 -27.1789,-26.49894 -53.01589,-54.31858 -79.68932,-81.28363 -13.18362,-14.8507 -32.2619,-23.10686 -51.86827,-24.1185 -2.80091,-0.14452 -5.61239,-0.14203 -8.41922,0.0113 -15.94185,0.15553 -31.88318,-0.36946 -47.80558,0.42764 6.04623,7.38766 14.30782,12.92902 19.12923,21.28875 3.94658,8.57361 4.25781,18.27372 4.43281,27.54721 0.11673,66.33362 -0.0963,132.6489 0.11755,198.98257 17.49713,-0.0191 34.97388,0.23295 52.47098,-0.0975 -0.29161,-65.73099 1.12808,-131.52068 -2.8185,-197.15443 15.00868,17.98318 31.94201,34.17818 48.25325,50.97545 22.10472,22.31858 43.35424,45.49187 66.17831,67.09113 15.22251,-13.64778 28.57869,-29.18086 43.14019,-43.50908 23.66003,-24.82649 50.09585,-49.14164 72.08392,-75.52345 17.53011,-4.50323 22.96436,-3.77758 22.96436,-3.77758 z"
       sodipodi:nodetypes="ccccccscccccccccccc" />
    <path
       fill="#000000"
       d="m 518.76633,388.20621 c 5.08106,-1.48683 81.36364,-0.56947 131.53431,-1.25105 33.99455,0.65077 69.16669,-3.28478 101.89072,8.15004 25.72058,8.27398 49.179,25.87552 60.55186,50.85239 14.16181,27.79683 14.68861,59.90107 12.30251,90.33195 -3.0679,32.94096 -20.70046,65.3861 -49.8298,82.18198 -27.23902,16.26894 -59.77714,19.27488 -90.85874,18.56206 -61.5125,-0.86761 -123.11796,1.45655 -184.63049,-1.02253 0.12388,-56.33738 0.21701,-112.70573 -0.0311,-169.04314 18.8411,-0.0312 37.68219,0.0311 56.5233,0 0.77471,40.53317 -1.20856,81.06633 0.92968,121.56849 43.47708,-0.34084 86.98517,0.21702 130.49327,-0.15486 23.36544,-0.43385 49.42689,-4.18349 66.12979,-22.21887 16.39299,-17.8185 17.35365,-43.69401 16.33105,-66.56366 -0.27892,-18.09738 -7.77815,-36.41165 -22.00198,-47.93947 -14.25478,-11.62072 -33.09587,-15.77321 -51.13129,-15.92815 -65.75794,-0.30989 -131.46889,-1.58273 -196.10673,2.00196 0.0311,-15.74224 -0.93044,-28.30461 -0.93044,-44.01589 z"
       id="path_D"
       style="display:inline;stroke-width:3.09886"
       sodipodi:nodetypes="scccccccccccccccccs" />
  </g>
</svg>
