<?xml version="1.0" encoding="UTF-8" standalone="no"?>
<svg
   viewBox="0 0 1024 1024"
   version="1.1"
   id="svg4"
   sodipodi:docname="MD.svg"
   inkscape:version="1.4.2 (f4327f4, 2025-05-13)"
   xmlns:inkscape="http://www.inkscape.org/namespaces/inkscape"
   xmlns:sodipodi="http://sodipodi.sourceforge.net/DTD/sodipodi-0.dtd"
   xmlns="http://www.w3.org/2000/svg"
   xmlns:svg="http://www.w3.org/2000/svg">
  <defs
     id="defs4" />
  <sodipodi:namedview
     id="namedview4"
     pagecolor="#ffffff"
     bordercolor="#000000"
     borderopacity="0.25"
     inkscape:showpageshadow="2"
     inkscape:pageopacity="0.0"
     inkscape:pagecheckerboard="0"
     inkscape:deskcolor="#d1d1d1"
     inkscape:zoom="0.59040655"
     inkscape:cx="359.07461"
     inkscape:cy="630.92118"
     inkscape:window-width="1920"
     inkscape:window-height="1057"
     inkscape:window-x="-8"
     inkscape:window-y="-8"
     inkscape:window-maximized="1"
     inkscape:current-layer="layer1"
     showgrid="true">
    <inkscape:grid
       id="grid1"
       units="px"
       originx="0"
       originy="0"
       spacingx="1"
       spacingy="1"
       empcolor="#0099e5"
       empopacity="0.30196078"
       color="#0099e5"
       opacity="0.14901961"
       empspacing="5"
       enabled="true"
       visible="true" />
  </sodipodi:namedview>
  <g
     inkscape:groupmode="layer"
     id="layer1"
     inkscape:label="Layer 1">
    <path
       id="path_M"
       style="stroke-width:3.11816"
       d="M 731.0957 311.44141 C 657.02917 312.44761 547.48063 311.28154 524.16406 312.94922 C 493.5742 312.77041 462.53305 323.59272 440.64844 345.35352 C 414.73651 371.39019 389.26122 397.86346 363.19336 423.77539 C 344.26611 443.10802 326.36689 463.46832 306.62891 481.99023 C 263.03698 439.48889 221.59763 394.87002 178.81641 351.62109 C 157.67136 327.80223 127.07143 314.56005 95.625 312.9375 C 91.132653 312.70571 86.624882 312.70917 82.123047 312.95508 C 56.554094 313.20454 30.985029 312.36217 5.4472656 313.64062 C 15.144746 325.48962 28.395895 334.37708 36.128906 347.78516 C 42.458783 361.53626 42.957599 377.09511 43.238281 391.96875 C 43.425498 498.36048 43.082774 604.72341 43.425781 711.11523 C 71.48924 711.08453 99.520586 711.48708 127.58398 710.95703 C 127.11628 605.53185 129.39433 500.01336 123.06445 394.74414 C 147.13669 423.58716 174.29562 449.56297 200.45703 476.50391 C 235.91054 512.30042 269.99235 549.46657 306.59961 584.10938 C 331.01482 562.21987 352.43599 537.30704 375.79102 514.32617 C 413.73907 474.50725 456.13984 435.50879 491.40625 393.19531 C 491.9306 393.06061 492.44806 392.92776 492.95898 392.79883 C 596.1332 387.15467 701.00243 389.17927 805.94727 389.67383 C 834.87408 389.92233 865.09395 396.58236 887.95703 415.2207 C 910.77047 433.71003 922.79874 463.08319 923.24609 492.10938 C 924.88624 528.78976 923.34526 570.2922 897.05273 598.87109 C 870.26314 627.79783 828.46383 633.81196 790.98828 634.50781 C 721.20614 635.10426 651.4238 634.20919 581.69141 634.75586 C 578.26191 569.79491 581.44176 504.78413 580.19922 439.77344 C 549.98017 439.82324 519.76199 439.72344 489.54297 439.77344 C 489.94083 530.13236 489.7905 620.54151 489.5918 710.90039 C 588.25104 714.87656 687.05957 711.1475 785.71875 712.53906 C 835.57018 713.68233 887.75891 708.86115 931.44727 682.76758 C 978.16748 655.82886 1006.4467 603.79066 1011.3672 550.95703 C 1015.1942 502.1493 1014.3506 450.65919 991.63672 406.07617 C 973.39592 366.01605 935.77052 337.78421 894.51758 324.51367 C 842.03189 306.17348 785.61916 312.48517 731.0957 311.44141 z "
       inkscape:label="path_MD" />
  </g>
</svg>
