<?xml version="1.0" encoding="UTF-8" standalone="no"?>
<svg
   viewBox="0 0 512 512"
   version="1.1"
   id="svg9"
   sodipodi:docname="playstore_icon.svg"
   inkscape:version="1.4.2 (f4327f4, 2025-05-13)"
   width="512"
   height="512"
   inkscape:export-filename="ic_launcher_foreground.webp"
   inkscape:export-xdpi="96"
   inkscape:export-ydpi="96"
   xmlns:inkscape="http://www.inkscape.org/namespaces/inkscape"
   xmlns:sodipodi="http://sodipodi.sourceforge.net/DTD/sodipodi-0.dtd"
   xmlns="http://www.w3.org/2000/svg"
   xmlns:svg="http://www.w3.org/2000/svg">
  <defs
     id="defs9" />
  <sodipodi:namedview
     id="namedview9"
     pagecolor="#ffffff"
     bordercolor="#000000"
     borderopacity="0.25"
     inkscape:showpageshadow="2"
     inkscape:pageopacity="0.0"
     inkscape:pagecheckerboard="0"
     inkscape:deskcolor="#d1d1d1"
     inkscape:zoom="0.83496094"
     inkscape:cx="512"
     inkscape:cy="512"
     inkscape:window-width="1920"
     inkscape:window-height="1057"
     inkscape:window-x="-8"
     inkscape:window-y="-8"
     inkscape:window-maximized="1"
     inkscape:current-layer="svg9"
     inkscape:export-bgcolor="#ffffffff" />
  <g
     id="#010101ff"
     transform="matrix(0.56618602,0,0,0.56618602,-33.980663,-33.852334)">
    <path
       fill="#010101"
       opacity="1"
       d="m 437.97,397.97 c 5.08,-9 18.24,-11.41 26.45,-5.39 4.66,3.86 7.22,9.52 10.59,14.42 23.2,36.85 47,73.32 70.14,110.2 -10.4,0.23 -20.81,0.11 -31.21,0.12 -3.21,0.09 -6.89,-0.54 -8.47,-3.71 -8.59,-14.47 -17.02,-29.05 -25.45,-43.62 -9.01,-15.06 -17.22,-30.61 -26.65,-45.41 -9.09,15.22 -17.71,30.72 -26.78,45.95 -7.94,14.35 -16.62,28.29 -24.52,42.66 -1.82,3.7 -6.39,4.1 -10.03,4.14 -9.79,-0.08 -19.58,0.08 -29.37,-0.12 9.27,-16.03 19.78,-31.3 29.48,-47.06 15.33,-24.03 30.68,-48.04 45.82,-72.18 z"
       id="path1" />
    <path
       fill="#010101"
       opacity="1"
       d="m 171.41,389.82 c 8.19,-0.41 16.39,-0.14 24.59,-0.22 11.55,-0.63 23.26,3.67 31.01,12.4 13.72,13.87 27.01,28.18 40.99,41.81 6.33,-5.94 12.07,-12.47 18.14,-18.67 8.36,-8.31 16.53,-16.8 24.84,-25.15 7.07,-7.03 17.12,-10.5 27,-10.39 8.71,0.08 17.43,-0.2 26.13,0.2 -2.89,3.81 -6.98,6.69 -9.26,10.95 -2.06,4.78 -2.16,10.13 -2.26,15.26 0,33.73 -0.07,67.45 -0.03,101.18 -8.99,0.23 -17.97,0.08 -26.96,0.08 -0.09,-23.75 -0.29,-47.51 0.17,-71.26 0.66,-10.03 0.35,-20.09 0.97,-30.11 -11.31,13.57 -24.39,25.51 -36.56,38.28 -7.49,7.37 -14.36,15.36 -22.19,22.38 -11.74,-11.11 -22.67,-23.03 -34.04,-34.51 -8.39,-8.64 -17.1,-16.97 -24.82,-26.22 2.03,33.76 1.3,67.6 1.45,101.41 -9,0.17 -17.99,0.04 -26.99,0.05 -0.11,-34.12 0,-68.23 -0.06,-102.35 -0.09,-4.77 -0.25,-9.76 -2.28,-14.17 -2.48,-4.3 -6.73,-7.15 -9.84,-10.95 z"
       id="path2" />
    <path
       fill="#010101"
       opacity="1"
       d="m 689.59,391.61 c 2.11,-2.43 5.51,-1.95 8.39,-2.04 51.64,0.18 103.3,-0.23 154.94,0.2 -3.84,6.08 -8.82,11.31 -13.02,17.12 -2.25,2.88 -4.56,6.81 -8.81,6.33 -39.19,0.07 -78.38,-0.02 -117.57,0.03 0.09,8.57 0.13,17.14 0.02,25.71 16.81,0.61 33.64,0.11 50.46,0.27 22.78,0.02 45.56,-0.06 68.33,0.03 -4.31,6.32 -9.16,12.25 -13.57,18.5 -1.72,2.17 -3.48,5.3 -6.73,4.8 -32.8,0.01 -65.61,-0.07 -98.41,0.05 0.08,8.15 -0.34,16.32 0.18,24.45 0.34,2.34 0.71,5.85 3.66,6.22 5.15,0.58 10.36,0.11 15.54,0.23 37.88,0.11 75.76,-0.19 113.63,0.15 -4.04,6.47 -8.98,12.32 -13.36,18.56 -1.87,2.28 -3.72,5.62 -7.18,5.09 -41.04,0.01 -82.08,-0.01 -123.13,0.03 -6.58,-0.13 -13.96,-1.58 -18.29,-7 -2.85,-3.4 -3.45,-8 -3.4,-12.28 0.02,-28.7 0.04,-57.4 0.03,-86.09 0.34,-3.17 -3.75,-3.48 -5.75,-4.88 4.67,-5.17 9.14,-10.54 14.04,-15.48 z"
       id="path3" />
  </g>
  <g
     id="#e00d1eff"
     transform="matrix(0.56618602,0,0,0.56618602,-33.980663,-33.852334)">
    <path
       fill="#e00d1e"
       opacity="1"
       d="m 497.73,389.63 c 60.47,-0.06 120.94,-0.1 181.4,0.02 -4.63,6.47 -10.24,12.12 -15.26,18.27 -1.56,1.74 -3.18,4.03 -5.83,3.77 -17.59,0.24 -35.18,-0.26 -52.76,0.17 -0.13,35.11 0.2,70.23 -0.16,105.34 -10.93,0.25 -21.86,0.23 -32.79,0.01 -0.03,-35.12 0.14,-70.23 -0.05,-105.34 -13.76,-0.29 -27.52,-0.11 -41.28,-0.14 -4.49,-0.11 -9.05,0.48 -13.49,-0.35 -2.05,-1.17 -3.6,-3 -5.21,-4.68 -4.96,-5.6 -10.65,-10.63 -14.57,-17.07 z"
       id="path4" />
  </g>
  <g
     id="#656565ff"
     transform="matrix(0.56618602,0,0,0.56618602,-33.980663,-33.852334)">
    <path
       fill="#656565"
       opacity="1"
       d="m 371.91,563.88 c 6,-7.95 16.45,-11.13 26.07,-11.17 16.01,0.02 32.01,0.05 48.02,0 7.56,-0.05 15.47,1.12 21.87,5.42 5.56,3.67 9.39,9.71 10.45,16.28 1.33,8.76 0.24,18.41 -5.27,25.63 -3.3,4.36 -8.5,6.5 -13.25,8.87 6.82,8.58 14.72,16.24 21.5,24.85 -6.76,0.48 -13.57,0.86 -20.34,0.39 -2.68,-0.02 -4.37,-2.32 -5.99,-4.11 -4.23,-5.11 -8.41,-10.27 -12.64,-15.38 -1.46,-1.59 -2.94,-3.68 -5.32,-3.75 -4.91,-0.48 -9.85,-0.11 -14.78,-0.15 -0.08,-5.15 -0.08,-10.3 0,-15.46 6.92,-0.05 13.85,-0.04 20.77,0.04 4.32,-0.04 9.01,-0.03 12.72,-2.57 7.56,-4.79 7.71,-17.82 -0.09,-22.43 -3.13,-2.03 -7,-2.02 -10.59,-2.03 -15.03,0.15 -30.07,0.07 -45.1,0.03 -4.15,-0.07 -8.7,0.78 -11.54,4.08 -2.9,3.07 -3.14,7.53 -3.18,11.53 0.01,16.72 0.06,33.45 -0.09,50.18 -5.94,0.22 -11.89,0.22 -17.83,-0.07 -0.15,-16.35 0.13,-32.71 -0.02,-49.06 -0.14,-7.22 0.12,-15.08 4.63,-21.12 z"
       id="path5" />
    <path
       fill="#656565"
       opacity="1"
       d="m 517.38,553.51 c 10.48,-1.46 21.09,-0.47 31.62,-0.73 12.02,0.33 24.59,-1.49 36.02,3.21 7.92,2.98 14.89,8.81 18.39,16.61 4.38,9.08 4.67,19.52 3.66,29.38 -1.12,9.75 -5.68,19.47 -13.87,25.21 -7.84,5.59 -17.7,7.38 -27.15,7.38 -12.7,-0.01 -25.4,-0.02 -38.09,0.04 -10.52,-0.02 -21.67,-2.68 -29.51,-10.07 -6.82,-6.26 -10.57,-15.39 -11.01,-24.56 -0.48,-10.1 -0.41,-20.84 4.66,-29.92 4.99,-9.34 15,-15.09 25.28,-16.55 m 3.99,16 c -8.28,1.29 -14.88,8.45 -15.76,16.74 -0.71,8.12 -1.01,17.24 3.95,24.2 4.67,6.25 12.97,8.1 20.38,8.21 11.03,0.07 22.07,0.06 33.11,0.06 7.16,0.01 14.95,-1.22 20.38,-6.29 4.67,-4.47 5.93,-11.23 6.06,-17.42 0.18,-6.45 -0.51,-13.51 -4.9,-18.6 -4.45,-5.48 -11.77,-7.38 -18.55,-7.62 -9.01,-0.26 -18.03,0 -27.04,-0.07 -5.88,0.06 -11.82,-0.31 -17.63,0.79 z"
       id="path6" />
    <path
       fill="#656565"
       opacity="1"
       d="m 250.43,553.84 c 16.18,-0.67 32.38,-0.06 48.57,-0.28 10.97,0.21 22.32,-1.06 32.88,2.63 8.3,2.67 15.87,8.35 19.54,16.41 4.57,8.97 4.74,19.33 3.97,29.15 -0.99,10.63 -6.68,21.1 -16.08,26.52 -8.79,5.25 -19.29,6.22 -29.32,5.99 -19.85,-0.28 -39.73,0.47 -59.58,-0.33 0.04,-18.18 0.07,-36.37 -0.01,-54.55 6.08,-0.01 12.16,0.01 18.24,0 0.25,13.08 -0.39,26.16 0.3,39.23 14.03,-0.11 28.07,0.07 42.11,-0.05 7.54,-0.14 15.95,-1.35 21.34,-7.17 5.29,-5.75 5.6,-14.1 5.27,-21.48 -0.09,-5.84 -2.51,-11.75 -7.1,-15.47 -4.6,-3.75 -10.68,-5.09 -16.5,-5.14 -21.22,-0.1 -42.45,0.31 -63.67,-0.22 0.01,-5.08 0.04,-10.17 0.04,-15.24 z"
       id="path7" />
    <path
       fill="#656565"
       opacity="1"
       d="m 620.34,553.84 c 6.07,-0.42 12.18,-0.42 18.26,0 -0.04,26.71 -0.01,53.41 0.02,80.11 -6.09,0.44 -12.19,0.42 -18.27,0.06 0.08,-26.73 -0.03,-53.45 -0.01,-80.17 z"
       id="path8" />
    <path
       fill="#656565"
       opacity="1"
       d="m 654.81,553.69 c 22.39,-0.34 44.78,0.04 67.18,-0.16 10.85,-0.22 21.99,3 30.24,10.23 7.15,6.31 10.49,15.91 11.15,25.22 0.67,10.05 -0.17,20.85 -5.93,29.45 -5.68,8.72 -15.86,13.37 -25.84,15.01 -10.14,1.45 -20.41,0.63 -30.61,0.82 -15.4,-0.09 -30.81,0.17 -46.2,-0.09 -0.09,-26.82 -0.17,-53.65 0.01,-80.48 m 18.14,15.63 c -0.36,16.33 -0.19,32.68 -0.12,49.02 9.06,0.34 18.12,0.06 27.17,0.13 9.49,-0.25 19.11,0.84 28.48,-1 7.31,-1.38 14.15,-6.58 15.93,-14.03 1.81,-8.03 1.89,-17.16 -2.4,-24.44 -4.32,-7.08 -13.08,-9.72 -20.96,-9.69 -16.03,0.03 -32.06,0.01 -48.1,0.01 z"
       id="path9" />
  </g>
</svg>
